<svg width="32" height="32" viewBox="0 0 32 32" fill="none" xmlns="http://www.w3.org/2000/svg">
<path opacity="0.4" d="M20.96 2.66669H11.04C10.5333 2.66669 10.1067 3.09335 10.1067 3.60002C10.1067 4.10669 10.5333 4.53335 11.04 4.53335H15.3867L17.2533 7.01335C17.6667 7.56002 17.72 7.64002 18.4933 7.64002H23.4533C23.96 7.64002 24.4533 7.70669 24.9333 7.84002C24.9867 8.08002 25.0133 8.32002 25.0133 8.57335V9.04002C25.0133 9.54669 25.44 9.97335 25.9467 9.97335C26.4533 9.97335 26.88 9.54669 26.88 9.04002V8.56002C26.8533 5.30669 24.2133 2.66669 20.96 2.66669Z" fill="#286D44"/>
<path d="M26.8533 8.72002C26.28 8.30669 25.6267 8.00002 24.92 7.82669C24.4533 7.69335 23.9467 7.62669 23.44 7.62669H18.48C17.7067 7.62669 17.6533 7.54669 17.24 7.00002L15.3733 4.52002C14.5067 3.37335 13.8267 2.66669 11.6533 2.66669H8.55999C5.30666 2.66669 2.66666 5.30669 2.66666 8.56002V23.44C2.66666 26.6934 5.30666 29.3334 8.55999 29.3334H23.44C26.6933 29.3334 29.3333 26.6934 29.3333 23.44V13.52C29.3333 11.5334 28.36 9.78669 26.8533 8.72002ZM19.1067 21.3334H12.8933C12.3733 21.3334 11.96 20.92 11.96 20.4C11.96 19.8934 12.3733 19.4667 12.8933 19.4667H19.0933C19.6 19.4667 20.0267 19.8934 20.0267 20.4C20.0267 20.92 19.6133 21.3334 19.1067 21.3334Z" fill="#286D44"/>
</svg>
