<svg width="32" height="32" viewBox="0 0 32 32" fill="none" xmlns="http://www.w3.org/2000/svg">
<path opacity="0.4" d="M28.9867 12.5867H2.66669V8.56002C2.66669 5.30669 5.30669 2.66669 8.56002 2.66669H11.6667C13.84 2.66669 14.52 3.37335 15.3867 4.53335L17.2534 7.01335C17.6667 7.56002 17.72 7.64002 18.4934 7.64002H22.2134C25.3734 7.62669 28.0667 9.70669 28.9867 12.5867Z" fill="#9FA5A2"/>
<path d="M29.32 14.4533C29.2934 13.8 29.1867 13.1867 28.9867 12.5867H2.66669V22.2C2.66669 26.1333 5.86669 29.3333 9.80002 29.3333H22.2C26.1334 29.3333 29.3334 26.1333 29.3334 22.2V14.76C29.3334 14.6667 29.3334 14.5467 29.32 14.4533ZM19.3334 21.6667H17.08V24C17.08 24.5467 16.6267 25 16.08 25C15.5334 25 15.08 24.5467 15.08 24V21.6667H12.6667C12.12 21.6667 11.6667 21.2133 11.6667 20.6667C11.6667 20.12 12.12 19.6667 12.6667 19.6667H15.08V17.3333C15.08 16.7867 15.5334 16.3333 16.08 16.3333C16.6267 16.3333 17.08 16.7867 17.08 17.3333V19.6667H19.3334C19.88 19.6667 20.3334 20.12 20.3334 20.6667C20.3334 21.2133 19.88 21.6667 19.3334 21.6667Z" fill="#9FA5A2"/>
</svg>
