<svg width="20" height="20" viewBox="0 0 20 20" fill="none" xmlns="http://www.w3.org/2000/svg">
<path d="M16.6666 10.8333V4.79079C16.6667 4.72501 16.6538 4.65987 16.6286 4.5991C16.6034 4.53832 16.5665 4.48311 16.52 4.43663L13.8966 1.81329C13.803 1.7195 13.6759 1.66674 13.5433 1.66663H3.83331C3.7007 1.66663 3.57353 1.7193 3.47976 1.81307C3.38599 1.90684 3.33331 2.03402 3.33331 2.16663V17.8333C3.33331 17.9659 3.38599 18.0931 3.47976 18.1868C3.57353 18.2806 3.7007 18.3333 3.83331 18.3333H11.6666" stroke="#29322E" stroke-width="1.5" stroke-linecap="round" stroke-linejoin="round"/>
<path d="M13.3333 1.66663V4.49996C13.3333 4.63257 13.386 4.75974 13.4798 4.85351C13.5735 4.94728 13.7007 4.99996 13.8333 4.99996H16.6666M13.3333 15.8333H18.3333M18.3333 15.8333L15.8333 13.3333M18.3333 15.8333L15.8333 18.3333" stroke="#29322E" stroke-width="1.5" stroke-linecap="round" stroke-linejoin="round"/>
</svg>
