<svg width="24" height="24" viewBox="0 0 24 24" fill="none" xmlns="http://www.w3.org/2000/svg">
<path d="M8.587 8.23594L11.185 3.00394C11.2606 2.85253 11.3769 2.72517 11.5209 2.63616C11.6648 2.54715 11.8308 2.5 12 2.5C12.1693 2.5 12.3352 2.54715 12.4791 2.63616C12.6231 2.72517 12.7394 2.85253 12.815 3.00394L15.413 8.23594L21.221 9.07994C21.3885 9.10317 21.5461 9.17303 21.6759 9.28155C21.8056 9.39007 21.9022 9.53288 21.9546 9.69367C22.0071 9.85446 22.0133 10.0268 21.9725 10.1909C21.9317 10.355 21.8456 10.5044 21.724 10.6219L17.522 14.6919L18.514 20.4419C18.641 21.1799 17.861 21.7419 17.194 21.3939L12 18.6779L6.805 21.3939C6.139 21.7429 5.359 21.1799 5.486 20.4409L6.478 14.6909L2.276 10.6209C2.15499 10.5033 2.0694 10.3541 2.02897 10.1903C1.98853 10.0264 1.99487 9.85451 2.04727 9.69409C2.09967 9.53367 2.19602 9.39116 2.32537 9.28277C2.45472 9.17439 2.61189 9.10446 2.779 9.08094L8.587 8.23594Z" stroke="#286D44" stroke-width="1.5" stroke-linecap="round" stroke-linejoin="round"/>
</svg>
