<svg width="20" height="20" viewBox="0 0 20 20" fill="none" xmlns="http://www.w3.org/2000/svg">
<path d="M10 10.4167C10.1105 10.4167 10.2165 10.3728 10.2946 10.2946C10.3728 10.2165 10.4167 10.1105 10.4167 10C10.4167 9.88951 10.3728 9.78353 10.2946 9.70539C10.2165 9.62725 10.1105 9.58335 10 9.58335C9.8895 9.58335 9.78352 9.62725 9.70538 9.70539C9.62724 9.78353 9.58334 9.88951 9.58334 10C9.58334 10.1105 9.62724 10.2165 9.70538 10.2946C9.78352 10.3728 9.8895 10.4167 10 10.4167ZM10 17.0834C10.1105 17.0834 10.2165 17.0395 10.2946 16.9613C10.3728 16.8832 10.4167 16.7772 10.4167 16.6667C10.4167 16.5562 10.3728 16.4502 10.2946 16.3721C10.2165 16.2939 10.1105 16.25 10 16.25C9.8895 16.25 9.78352 16.2939 9.70538 16.3721C9.62724 16.4502 9.58334 16.5562 9.58334 16.6667C9.58334 16.7772 9.62724 16.8832 9.70538 16.9613C9.78352 17.0395 9.8895 17.0834 10 17.0834ZM10 3.75002C10.1105 3.75002 10.2165 3.70612 10.2946 3.62798C10.3728 3.54984 10.4167 3.44386 10.4167 3.33335C10.4167 3.22285 10.3728 3.11687 10.2946 3.03873C10.2165 2.96059 10.1105 2.91669 10 2.91669C9.8895 2.91669 9.78352 2.96059 9.70538 3.03873C9.62724 3.11687 9.58334 3.22285 9.58334 3.33335C9.58334 3.44386 9.62724 3.54984 9.70538 3.62798C9.78352 3.70612 9.8895 3.75002 10 3.75002Z" fill="#29322E" stroke="#29322E" stroke-width="1.5" stroke-linecap="round" stroke-linejoin="round"/>
</svg>
