<svg width="20" height="20" viewBox="0 0 20 20" fill="none" xmlns="http://www.w3.org/2000/svg">
<path d="M11.9692 4.71001L13.2025 3.47668C13.3573 3.32184 13.541 3.19901 13.7433 3.11521C13.9455 3.03141 14.1623 2.98828 14.3812 2.98828C14.6002 2.98828 14.817 3.03141 15.0192 3.11521C15.2215 3.19901 15.4052 3.32184 15.56 3.47668L16.7383 4.65501C17.0508 4.96755 17.2263 5.3914 17.2263 5.83334C17.2263 6.27528 17.0508 6.69913 16.7383 7.01168L15.505 8.24501M11.9692 4.71001L3.95583 12.7225C3.67915 12.9992 3.50863 13.3644 3.47416 13.7542L3.27249 16.0375C3.26166 16.1589 3.27759 16.2812 3.31914 16.3957C3.3607 16.5103 3.42687 16.6143 3.513 16.7006C3.59913 16.7868 3.70312 16.853 3.81765 16.8947C3.93217 16.9364 4.05443 16.9524 4.17583 16.9417L6.45916 16.74C6.84952 16.7059 7.21538 16.5354 7.49249 16.2583L15.505 8.24501M11.9692 4.71001L15.505 8.24501" stroke="#29322E" stroke-width="1.5" stroke-linecap="round" stroke-linejoin="round"/>
</svg>
