<svg width="20" height="20" viewBox="0 0 20 20" fill="none" xmlns="http://www.w3.org/2000/svg">
<path d="M15 18.3334C15.663 18.3334 16.2989 18.07 16.7678 17.6011C17.2366 17.1323 17.5 16.4964 17.5 15.8334C17.5 15.1703 17.2366 14.5344 16.7678 14.0656C16.2989 13.5967 15.663 13.3334 15 13.3334C14.337 13.3334 13.7011 13.5967 13.2322 14.0656C12.7634 14.5344 12.5 15.1703 12.5 15.8334C12.5 16.4964 12.7634 17.1323 13.2322 17.6011C13.7011 18.07 14.337 18.3334 15 18.3334ZM15 6.66669C15.663 6.66669 16.2989 6.40329 16.7678 5.93445C17.2366 5.46561 17.5 4.82973 17.5 4.16669C17.5 3.50365 17.2366 2.86776 16.7678 2.39892C16.2989 1.93008 15.663 1.66669 15 1.66669C14.337 1.66669 13.7011 1.93008 13.2322 2.39892C12.7634 2.86776 12.5 3.50365 12.5 4.16669C12.5 4.82973 12.7634 5.46561 13.2322 5.93445C13.7011 6.40329 14.337 6.66669 15 6.66669ZM5 12.5C5.66304 12.5 6.29893 12.2366 6.76777 11.7678C7.23661 11.2989 7.5 10.6631 7.5 10C7.5 9.33698 7.23661 8.70109 6.76777 8.23225C6.29893 7.76341 5.66304 7.50002 5 7.50002C4.33696 7.50002 3.70107 7.76341 3.23223 8.23225C2.76339 8.70109 2.5 9.33698 2.5 10C2.5 10.6631 2.76339 11.2989 3.23223 11.7678C3.70107 12.2366 4.33696 12.5 5 12.5Z" stroke="#29322E" stroke-width="1.5" stroke-linecap="round" stroke-linejoin="round"/>
<path d="M12.9167 5.41669L7.08334 8.75002M7.08334 11.25L12.9167 14.5834" stroke="#29322E" stroke-width="1.5"/>
</svg>
